<svg xmlns="http://www.w3.org/2000/svg" xml:space="preserve" width="180" height="120" x="0px" y="0px" viewBox="2.5 -21.5 118 78.6">
  <rect x="2.5" y="-21.5" width="118" height="78.6" rx="8" ry="8" fill="#000"/>
  <g transform="translate(12.3, 3.5) scale(0.8)">
    <path fill="#fff" d="m23.5 13.1-2.9 5.1h-2.3l-.3.7h2.1l-1.8 3h1.1l1.8-3h2.6l.6 3h2.1L24.9 13h-1.4zm-1.8 5.1 1.5-2.7.5 2.7zm31.7-1h-1.3l-.2.8h1.3l-1.3 4h5.8l.2-.8h-3.6l1-3.2h2.3l.2-.7h-2.3l1.1-3.3h3.6l.2-.8h-5.8zm15-4.1h-2.1L63.5 22h5.1l.3-.8h-3zm23.6 0h-2.1L87 22h5.1l.3-.8h-3zm10.2 0-2.9 5.1H97l-.3.7h2.1l-1.8 3h1.1l1.8-3h2.6l.6 3h2.1l-1.6-8.9h-1.4zm-1.8 5.1 1.5-2.7.5 2.7zm-88.7-.9H8.4l1.3-4.2H7.6l-1.3 4.2H4.1l-.2.8H6L4.8 22h2.1l1.2-3.9h3.3L10.2 22h2.1l2.8-8.9H13zm25.2-2.9.4-.7c-4.2-2.3-7.2 2.1-4.2 4.1.5.3 1.2.6 1.9 1.1 1.8 1.2-.9 3.8-3.6 1.4l-.5.7c2.1 1.8 5.6 1.2 6.2-1.6.2-1 0-1.8-.8-2.3-.8-.6-1.3-.7-1.9-1-2.2-1-.1-3.4 2.5-1.7m10.2 0 .4-.7c-4.2-2.3-7.2 2.1-4.2 4.1.5.3 1.2.6 1.9 1.1 1.8 1.2-.9 3.8-3.6 1.4l-.6.7c2.1 1.8 5.6 1.2 6.2-1.6.2-1 0-1.8-.8-2.3-.8-.6-1.3-.7-1.9-1-2.1-1 0-3.4 2.6-1.7m32.4-1.3h-2.9l-1.4 4.1h-1.3l-.3.8H75l-1.1 3.2-.2.8h4c4.1-.1 5.5-3.8 2.4-4.5 3.4-1.1 3-4.4-.6-4.4m-1.9 8.1h-1.5l1-3.2h1.3c2.5 0 .8 3.1-.8 3.2m1-4h-1.1l1-3.3h.5c2.3-.1 1.8 3.2-.4 3.3m36.8-4.1h-2.6l-2.9 8.9h3.4c6.9-.3 8.2-9 2.1-8.9m-2.2 8h-1l2.5-7.2h.7c3.3 0 1.7 7.2-2.2 7.2" class="svg"/>
  </g>
</svg>
