<svg xmlns="http://www.w3.org/2000/svg" width="300" height="200" viewBox="0 0 310 206.6">
  <rect width="310" height="206.6" rx="20" ry="20" fill="#FFF"/>
  <g transform="translate(5, 5) scale(0.95)">
    <ellipse cx="153.044" cy="66.605" fill="#FFF" rx="70.11" ry="60.76"/>
    <path fill="#007DC5" d="M153.045 5.843c30.552 0 56.608 16.978 66.147 40.479.297.731-.078 1.219-.803 1.225-1.46.01-31.546.369-31.546.369h-67.592s-30.09-.359-31.549-.369c-.726-.006-1.101-.493-.804-1.225 9.54-23.502 35.601-40.479 66.147-40.479m.006 49.161c13.962 0 59.21.993 67.908 1.15.603.009 1.106-.444.99-1.098-.138-.784-.99-3.903-1.216-4.522-.196-.55-.493-.8-1.047-.784-8.67.478-66.636 3.722-66.636 3.722s-57.966-3.244-66.633-3.722c-.557-.016-.854.234-1.047.784-.225.619-1.078 3.738-1.216 4.522-.115.653.388 1.106.991 1.098 8.696-.157 53.944-1.15 67.906-1.15m-.006 8.414c20.481-.088 60.85 1.575 69.201 1.787.638.019.919-.313.913-.825-.007-.975-.297-4.01-.397-4.647-.118-.725-.622-1.106-1.307-1.088-.628.02-47.47 2.694-68.41 2.866-20.941-.172-67.78-2.847-68.411-2.866-.688-.019-1.191.363-1.307 1.088-.101.638-.391 3.673-.397 4.647-.003.513.275.844.91.825 8.354-.212 48.723-1.875 69.205-1.787m0 63.95c30.552 0 56.608-16.978 66.147-40.475.297-.731-.078-1.22-.803-1.223-1.46-.009-31.546-.372-31.546-.372h-67.592s-30.09.363-31.549.372c-.726.003-1.101.491-.804 1.223 9.54 23.498 35.601 40.475 66.147 40.475m.006-49.157c-13.962 0-59.21-.997-67.904-1.15-.604-.013-1.106.44-.991 1.097.138.781.991 3.907 1.216 4.52.193.55.49.804 1.047.788 8.667-.481 66.633-3.723 66.633-3.723s57.966 3.241 66.636 3.723c.554.016.851-.238 1.047-.788.226-.612 1.078-3.738 1.216-4.52.116-.656-.388-1.109-.99-1.097-8.7.153-53.948 1.15-67.91 1.15m-.006-8.414c-20.481.084-60.851-1.575-69.205-1.791-.635-.016-.913.318-.91.825.007.979.297 4.01.397 4.647.115.731.619 1.112 1.307 1.088.631-.016 47.47-2.691 68.411-2.866 20.94.175 67.782 2.851 68.41 2.866.685.024 1.188-.356 1.307-1.088.101-.638.391-3.669.397-4.647.006-.507-.275-.841-.913-.825-8.351.216-48.72 1.875-69.201 1.791"/><path fill="#231F20" d="M45.536 170.566c-2.922 0-7.514-2.157-7.514-9.143 0-6.998 4.576-9.235 7.514-9.235 2.941 0 7.514 2.231 7.514 9.235 0 6.999-4.591 9.143-7.514 9.143m-.018-21.884c-6.767 0-12.249 5.7-12.249 12.742 0 7.029 5.482 12.733 12.249 12.733s12.255-5.704 12.255-12.733c-.001-7.042-5.489-12.742-12.255-12.742zm188.399 21.884c-2.926 0-7.52-2.157-7.52-9.143 0-6.998 4.575-9.235 7.52-9.235 2.938 0 7.511 2.231 7.511 9.235 0 6.999-4.588 9.143-7.511 9.143m-.025-21.884c-6.76 0-12.242 5.7-12.242 12.742 0 7.029 5.482 12.733 12.242 12.733 6.767 0 12.252-5.704 12.252-12.733 0-7.042-5.486-12.742-12.252-12.742zm-219.47 24.891v-24.308H10v24.308h4.422zm79.016 0v-24.308h-4.426v24.308h4.426zm97.016 0v-24.308h-4.426v24.308h4.426zm-76.809-21.051h1.932l.219-3.147a23.128 23.128 0 0 0-2.682-.159c-9.401 0-15.456 5.025-15.456 12.208 0 7.173 6.055 12.196 15.456 12.196.987 0 1.716-.054 2.682-.153l-.219-3.15h-1.932c-6.688 0-11.077-3.467-11.077-8.921-.001-5.463 4.422-8.874 11.077-8.874m-34.65 11.252-.037.031c-3.229-5.957-10.134-12.202-14.344-14.537h-3.013v24.305h4.163l-.172-18.778.05-.063c5.251 3.616 10.931 10.602 13.928 18.841h3.426v-24.305h-4.17l.169 14.506m134.722 0-.041.031c-3.225-5.957-10.129-12.202-14.336-14.537h-3.017v24.305h4.16l-.169-18.778.047-.063c5.254 3.616 10.934 10.602 13.928 18.841h3.432v-24.305h-4.179l.175 14.506m-96.557 9.799h4.188s6.548-15.519 6.789-16.028c.3.528 8.079 16.028 8.079 16.028h5.007l-13.018-24.805-11.045 24.805m169.825-24.804-11.049 24.805h4.188s6.548-15.519 6.792-16.028c.3.528 8.083 16.028 8.083 16.028H300l-13.015-24.805M22.292 159.148c2.569-2.656 9.505-9.88 9.505-9.88H26.48l-10.104 10.64c4.854 3.197 8.907 7.539 11.417 13.665h4.639c-1.916-5.755-5.592-11.011-10.14-14.425m232.119-9.879h-4.426v24.305h14.067v-3.366h-9.642v-20.939m24.311 0h-16.768v3.366h6.169v20.938h4.426v-20.938h6.173v-3.366m-110.643 11.936c-.44.847-1.063 2.454-1.481 3.595h-.063c-.409-1.113-1.031-2.729-1.476-3.572-2.1-4.401-5.453-10.452-7.451-12.559-1.169 2.147-5.804 20.838-6.772 24.904h4.432l3.501-15.99.068-.025c1.516 2.335 4.485 8.364 6.264 13.855h2.932c1.645-5.129 4.704-11.555 6.22-13.89l.06.031 3.554 16.019h4.435c-.978-4.066-5.604-22.757-6.779-24.904-2.04 2.106-5.312 8.157-7.444 12.536"/></g>
</svg>
