<svg xmlns="http://www.w3.org/2000/svg" width="225" height="150" viewBox="0 0 225 150">
  <rect width="225" height="150" rx="15" ry="15" fill="#fff"/>
  <g transform="translate(112.5, 75) scale(0.6) translate(-112.5, -112.5)">
    <path fill="#0088CF" d="M37.56 68.304h145.368c2.377 0 2.377-1.152 2.377-2.376 0-8.568-12.816-29.448-29.664-39.888-13.608-8.208-29.089-12.744-45.217-12.744-15.768 0-31.608 4.536-45.216 12.744C48 36.48 35.544 58.008 35.4 65.784c0 1.872.144 2.52 2.16 2.52zm0 35.496h145.368c2.377 0 2.377 1.224 2.377 2.376 0 8.641-12.816 29.376-29.664 39.816-13.608 8.064-29.089 12.6-45.217 12.6-15.768 0-31.608-4.535-45.216-12.6C48 135.552 35.544 114.023 35.4 106.32c0-1.656.144-2.52 2.16-2.52zm149.76-16.488c-1.008-.36-1.225-.504-2.736-.504l-58.248 2.376h-31.68l-58.968-2.376c-1.512 0-3.528.36-3.528 1.368l.36 4.032c.36 1.152.648 1.656 3.528 1.872L94.8 91.344h31.536l58.607 2.736 1.873-.36c.504-.504 1.008-.864 1.008-1.512l.287-3.744c-.143-.504-.143-.648-.791-1.152zm0-2.664c-1.008.504-1.225.648-2.881.648l-58.104-2.376H94.44l-58.896 2.376c-1.368 0-3.384-.36-3.384-1.368l.216-4.032c.504-1.296.792-1.656 3.528-1.8l58.752 2.52h31.68l58.607-2.52 1.656.288c.721.504 1.008.864 1.008 1.512l.504 3.528c-.143.72-.143.864-.791 1.224zm-2.015 10.728-74.881 1.872-74.736-1.872c-1.656 0-2.52.36-2.52 1.512 0 1.008.216 2.52.72 4.392.288 1.008 1.008 1.008 3.384 1.008l73.152-3.024 75.024 2.664c1.008-.288 1.512-1.656 2.016-5.184-.144-1.152-.504-1.368-2.159-1.368zm0-18.504L110.28 75l-74.736 1.872c-1.512 0-2.52-.504-2.52-1.512s.36-2.664.648-4.392c.36-1.152 1.008-1.008 3.6-1.008l73.008 2.88 75.168-2.664c1.008.288 1.368 1.656 2.016 5.184-.144 1.152-.648 1.512-2.159 1.512z"/>
    <g fill="#231F20">
      <path d="M52.032 171.048h3.744v41.112h-3.744zM192.145 171.048H160.68v3.744h13.896v37.44h3.744v-37.44h13.825zM91.56 171.048v37.08l-23.04-37.08H62.4v41.112h3.744v-38.088l23.544 38.088h5.688v-41.112zM172.057 208.488h-19.009v-37.44h-3.743v41.112h22.752zM38.784 170.977 24.312 206.76 9.84 171.048l-6.768.072v41.112h3.744v-38.52l15.552 38.376v.144h3.816v-.144.072l15.552-38.305v38.377h3.744V171.12zM217.128 212.16h4.104L204.6 171.048h-5.832l-16.631 41.112h4.031l8.855-21.889h13.248l8.857 21.889zm-20.808-25.128 5.328-13.177 5.328 13.177H196.32zM99.984 191.641c0 10.584 9.144 20.52 22.032 20.52 12.961 0 22.104-9.936 22.104-20.52 0-13.32-12.168-20.664-22.104-20.664s-22.032 7.343-22.032 20.664zm3.816-.145c0-8.28 6.48-17.352 18.216-17.352 11.809 0 18.36 9.071 18.36 17.352 0 9.72-7.92 17.568-18.36 17.568s-18.216-7.848-18.216-17.568z"/>
    </g>
  </g>
</svg>
