<svg xmlns="http://www.w3.org/2000/svg" width="300" height="200" viewBox="0 0 165 110">
  <rect width="165" height="110" rx="12" ry="12" fill="#fff"/>
  <g transform="translate(16.5, 42.5) scale(0.8)">
    <path d="M28.56.72h7.87v14.65h9.91v4.26H28.56V.72zM128.39 20.39c-6.14 0-11.3-1.83-11.3-6.86V.73h7.61V13c0 2.37 1.75 3.45 3.68 3.45s3.68-1.08 3.68-3.45V.73h7.64v12.8c0 5.03-5.17 6.86-11.31 6.86ZM155.7 5.75h8c-.4-4.34-6.51-5.63-11.25-5.63s-10.9 1.55-10.9 6.28c0 3.46 3.39 4.57 5.76 5 1.68.34 4.5.82 5.9 1.13 2 .43 3 .83 3 2s-1.14 1.86-3.47 1.86-3.54-.69-3.9-2.25h-8.24c.48 5.15 7.08 6.28 12.29 6.28s11.5-1.25 11.5-6.35c0-2.77-1.79-4.62-6.18-5.49-2.3-.46-5.49-1.06-6.71-1.27-1.62-.28-2.2-.87-2.2-1.67S150.09 4 152.37 4c1.91 0 2.95.54 3.33 1.75ZM108.53 12.67c5.67 0 7.12-3.61 7.12-5.91 0-2.12-1.22-6-7.11-6H93.29v18.9h7.49v-7Zm-7.76-4.13V4.88h5c1.25 0 2.31.58 2.31 1.78s-.61 1.9-2.32 1.9ZM55.81 1.19 56 .73h7.9l-8.2 12.54v6.36h-7.47v-6.36L40 .73h7.87l.22.46 3.61 6.26c.24.4.31.4.56 0ZM79.7 19.63l.14-.38 4-9.34c.1-.24.34-.18.35 0v9.68h6.51V.73h-7.82l-.18.41L77.93 12c-.18.41-.34.41-.52 0l-4.8-10.86-.14-.41H64.7v18.9h6.45V10c0-.21.24-.28.35 0l4 9.34.14.38ZM26.78 10.18c0 6.35-5.51 10.17-13.19 10.17S.39 16.53.39 10.18 5.9 0 13.59 0s13.19 3.83 13.19 10.18Zm-7.93 0c0-3.83-2-6.18-5.26-6.18s-5.26 2.36-5.26 6.18 2 6.18 5.26 6.18 5.25-2.36 5.25-6.18Z" fill="#08107b"/>
    <path d="m0 29.05 82.5 2.13 82.5-2.13v-.97l-82.5-2.13L0 28.08v.97z" fill="#e9b226"/>
  </g>
</svg>
