<?xml version="1.0" encoding="UTF-8" standalone="no"?>
<svg
   xmlns="http://www.w3.org/2000/svg"
   width="677.56"
   height="451.71"
   viewBox="0 0 677.56 451.71"
   version="1.0">
  <rect
     style="fill:#ffffff;fill-opacity:1;stroke:none"
     id="rect-bg"
     width="677.56"
     height="451.71"
     x="0"
     y="0"
     rx="40"
     ry="40" />
  <g
     id="layer1"
     transform="translate(67.756, 132.49) scale(0.8)">
    <g
       id="g24491"
       transform="translate(117.3514,-417.7501)">
      <path
         style="fill:black;fill-rule:nonzero;stroke:none;font-family:Arial"
         d="M 103.65032,489.75759 C 103.65032,450.49814 52.708851,417.75008 -7.8080824,417.75008 C -68.325051,417.75008 -117.35142,449.54061 -117.35142,488.80002 C -117.35142,519.82454 -87.284471,547.7849 -44.960928,558.12642 L -44.960928,521.93113 C -60.664682,516.76039 -70.814679,506.80191 -70.623194,488.80002 C -70.431673,465.43591 -42.471292,451.0727 -7.8080824,451.0727 C 26.855088,451.0727 55.006969,467.92554 55.006969,488.80002 C 55.006969,506.03586 35.664493,520.59059 9.2362324,525.18684 L 9.2362324,475.20287 L -35.768449,475.20287 L -35.768449,597.76884 L 9.2362324,597.76884 L 9.2362324,561.76507 C 14.981507,560.99902 20.535272,560.23301 25.89752,558.89247 L 52.708851,597.76884 L 102.11826,597.76884 L 63.050365,545.29528 C 87.563531,531.69812 103.65032,511.78113 103.65032,489.75759"
         id="path23477" />
      <path
         style="fill:black;fill-rule:nonzero;stroke:none;font-family:Arial"
         d="M 142.5267,537.63491 C 142.5267,517.90944 158.61349,501.82265 178.33895,501.82265 C 198.25593,501.82265 214.34272,517.90944 214.34272,537.63491 C 214.34272,557.55186 197.68139,572.48963 177.95593,572.48963 C 158.03899,572.48963 142.5267,557.55186 142.5267,537.63491 z M 178.91349,468.30851 C 131.03615,468.30851 96.75601,498.37549 96.75601,535.71981 C 96.75601,573.06412 128.92955,603.70563 175.46634,603.70563 C 226.79084,603.70563 260.11346,574.59621 260.11346,537.25187 C 260.11346,499.90755 229.28043,468.30851 178.91349,468.30851"
         id="path23479" />
      <path
         style="fill:black;fill-rule:nonzero;stroke:none;font-family:Arial"
         d="M 264.51818,431.73024 L 305.50116,431.73024 L 305.50116,597.76884 L 264.51818,597.76884 L 264.51818,431.73024 z "
         id="path23481" />
      <path
         style="fill:black;fill-rule:nonzero;stroke:none;font-family:Arial"
         d="M 317.18323,431.73024 L 358.35773,431.73024 L 358.35773,597.76884 L 317.18323,597.76884 L 317.18323,431.73024 z "
         id="path23483" />
      <path
         style="fill:black;fill-rule:nonzero;stroke:none;font-family:Arial"
         d="M 440.89824,573.06412 C 424.61994,572.8726 412.17186,563.29716 408.15016,548.93399 L 515.39535,548.93399 C 515.58687,546.63585 515.58687,544.14622 515.58687,541.65659 C 515.58687,504.31228 488.39256,469.26608 438.02562,469.26608 C 390.14828,469.26608 361.61337,500.48208 361.61337,537.63491 C 361.61337,574.97922 392.06337,604.47164 438.4086,604.47164 C 482.26425,604.47164 507.352,585.89526 513.86329,557.16885 L 467.70957,557.16885 C 461.58127,567.12733 450.85673,573.25564 440.89824,573.06412 z M 441.28127,502.5887 C 453.53787,502.5887 462.53879,510.24907 467.70957,520.20755 L 411.40581,520.20755 C 417.34259,509.67454 428.25865,502.5887 441.28127,502.5887"
         id="path23491" />
      <path
         style="fill:black;fill-rule:evenodd;stroke:none;font-family:Arial"
         d="M 519.03407,432.11329 L 560.20857,432.11329 L 560.20857,469.26608 L 519.03407,469.26608 L 519.03407,432.11329 z M 519.03407,598.3434 L 560.20857,598.3434 L 560.20857,476.1604 L 519.03407,476.1604 L 519.03407,598.3434 z "
         id="path23493" />
    </g>
  </g>
</svg>
